# xmcd
# 
# Track frame offsets:
#     150
#     15919
#     28559
#     42489
#     58416
#     71687
#     86890
#     100288
#     113844
#     127235
#     140659
#     155294
#     168257
#     181679
#     195076
#     207947
#     222389
#     235817
#     249701
#     264136
#     277637
#     291274
#     303670
#     318987
#     333737
# 
# Disc length: 4602
# 
# Revision: 1
# Processed by: cddbd v1.5.2PL0 Copyright (c) Steve Scherf et al.
# Submitted via: fre:ac v1.0.31
# 
DISCID=6e11f819
DTITLE=America - Epic Americana: Pre-War Blues Country and Folk Disc 1
DYEAR=0
DGENRE=Blues
TTITLE0=Mamie Smith and Her Jazz Hounds - Crazy Blues
TTITLE1=Blind Lemon Jefferson - Rambler Blues
TTITLE2=Texas Alexander - Levee Camp Moan Blues
TTITLE3=Henry Thomas - Bull Doze Blues
TTITLE4=Blind Blake - Too Tight Blues No. 2
TTITLE5=Tommy Johnson - Big Road Blues
TTITLE6=Cannon's Jug Stompers - Walk Right In
TTITLE7=Charlie Patton - Pony Blues
TTITLE8=Bessie Smith - Dirty No-Gooder's Blues
TTITLE9=Sleepy John Estes - The Girl I Love, She Got Long Curly Hair
TTITLE10=Blind Willie McTell - Travelin' Blues
TTITLE11=Mississippi John Hurt - Got The Blues Can't Be Satisfied
TTITLE12=Son House - Walkin' Blues
TTITLE13=Little Brother Montgomery - Vicksburg Blues
TTITLE14=Skip James - I'm So Glad
TTITLE15=Kokomo Arnold - Milk Cow Blues
TTITLE16=Leroy Carr - When The Sun Goes Down
TTITLE17=Bo Carter - I Want You To Know
TTITLE18=Casey Bill Weldon - Back Door Blues
TTITLE19=Big Bill Broonzy - C and A Blues
TTITLE20=Sonny Boy Williamson - Good Morning Little School Girl
TTITLE21=Lonnie Johnson - Mr. Johnson Swing
TTITLE22=Lil Green - Romance In The Dark
TTITLE23=Sippie Wallace With Albert Ammons and His Rhythm Kings - Bedroom Blues
TTITLE24=Memphis Minnie - Kid Man Blues
EXTD=
EXTT0=
EXTT1=
EXTT2=
EXTT3=
EXTT4=
EXTT5=
EXTT6=
EXTT7=
EXTT8=
EXTT9=
EXTT10=
EXTT11=
EXTT12=
EXTT13=
EXTT14=
EXTT15=
EXTT16=
EXTT17=
EXTT18=
EXTT19=
EXTT20=
EXTT21=
EXTT22=
EXTT23=
EXTT24=
PLAYORDER=
